<?xml version="1.0" encoding="UTF-8" standalone="no"?>
<!DOCTYPE svg PUBLIC "-//W3C//DTD SVG 1.1//EN"
 "http://www.w3.org/Graphics/SVG/1.1/DTD/svg11.dtd">
<!-- Generated by graphviz version 2.49.3 (0)
 -->
<!-- Title: G Pages: 1 -->
<svg width="602pt" height="387pt"
 viewBox="0.00 0.00 602.00 387.00" xmlns="http://www.w3.org/2000/svg" xmlns:xlink="http://www.w3.org/1999/xlink">
<g id="graph0" class="graph" transform="scale(1 1) rotate(0) translate(4 383)">
<title>G</title>
<!-- N1 -->
<g id="node1" class="node">
<title>N1</title>
<polygon fill="none" stroke="white" stroke-width="2" points="242.5,-332.5 242.5,-378.5 315.5,-378.5 315.5,-332.5 242.5,-332.5"/>
<text text-anchor="middle" x="279" y="-363.3" font-family="Times,serif" font-size="14.00" fill="white">number: 1</text>
<polyline fill="none" stroke="white" stroke-width="2" points="242.5,-355.5 315.5,-355.5 "/>
<text text-anchor="middle" x="279" y="-340.3" font-family="Times,serif" font-size="14.00" fill="white">mod: 1</text>
</g>
<!-- N10 -->
<g id="node2" class="node">
<title>N10</title>
<polygon fill="none" stroke="white" points="198,-249.5 198,-295.5 252,-295.5 252,-249.5 198,-249.5"/>
<text text-anchor="middle" x="225" y="-280.3" font-family="Times,serif" font-size="14.00" fill="white">10</text>
<polyline fill="none" stroke="white" points="198,-272.5 252,-272.5 "/>
<text text-anchor="middle" x="225" y="-257.3" font-family="Times,serif" font-size="14.00" fill="white">10</text>
</g>
<!-- N1->N10 -->
<g id="edge1" class="edge">
<title>N1->N10</title>
<path fill="none" stroke="white" d="M264.24,-332.37C258.41,-323.62 251.61,-313.41 245.32,-303.99"/>
<polygon fill="white" stroke="white" points="248.2,-301.99 239.74,-295.61 242.37,-305.87 248.2,-301.99"/>
</g>
<!-- N11 -->
<g id="node3" class="node">
<title>N11</title>
<polygon fill="none" stroke="white" points="306,-249.5 306,-295.5 360,-295.5 360,-249.5 306,-249.5"/>
<text text-anchor="middle" x="333" y="-280.3" font-family="Times,serif" font-size="14.00" fill="white">11</text>
<polyline fill="none" stroke="white" points="306,-272.5 360,-272.5 "/>
<text text-anchor="middle" x="333" y="-257.3" font-family="Times,serif" font-size="14.00" fill="white">11</text>
</g>
<!-- N1->N11 -->
<g id="edge2" class="edge">
<title>N1->N11</title>
<path fill="none" stroke="white" d="M293.76,-332.37C299.59,-323.62 306.39,-313.41 312.68,-303.99"/>
<polygon fill="white" stroke="white" points="315.63,-305.87 318.26,-295.61 309.8,-301.99 315.63,-305.87"/>
</g>
<!-- N100 -->
<g id="node4" class="node">
<title>N100</title>
<polygon fill="none" stroke="white" points="72,-166.5 72,-212.5 126,-212.5 126,-166.5 72,-166.5"/>
<text text-anchor="middle" x="99" y="-197.3" font-family="Times,serif" font-size="14.00" fill="white">100</text>
<polyline fill="none" stroke="white" points="72,-189.5 126,-189.5 "/>
<text text-anchor="middle" x="99" y="-174.3" font-family="Times,serif" font-size="14.00" fill="white">4</text>
</g>
<!-- N10->N100 -->
<g id="edge3" class="edge">
<title>N10->N100</title>
<path fill="none" stroke="white" d="M197.97,-254.12C179.58,-242.3 155.03,-226.52 134.99,-213.64"/>
<polygon fill="white" stroke="white" points="136.72,-210.59 126.42,-208.13 132.94,-216.48 136.72,-210.59"/>
</g>
<!-- N101 -->
<g id="node5" class="node">
<title>N101</title>
<polygon fill="none" stroke="white" points="198,-166.5 198,-212.5 252,-212.5 252,-166.5 198,-166.5"/>
<text text-anchor="middle" x="225" y="-197.3" font-family="Times,serif" font-size="14.00" fill="white">101</text>
<polyline fill="none" stroke="white" points="198,-189.5 252,-189.5 "/>
<text text-anchor="middle" x="225" y="-174.3" font-family="Times,serif" font-size="14.00" fill="white">5</text>
</g>
<!-- N10->N101 -->
<g id="edge4" class="edge">
<title>N10->N101</title>
<path fill="none" stroke="white" d="M225,-249.37C225,-241.15 225,-231.66 225,-222.73"/>
<polygon fill="white" stroke="white" points="228.5,-222.61 225,-212.61 221.5,-222.61 228.5,-222.61"/>
</g>
<!-- N110 -->
<g id="node6" class="node">
<title>N110</title>
<polygon fill="none" stroke="white" points="306,-166.5 306,-212.5 360,-212.5 360,-166.5 306,-166.5"/>
<text text-anchor="middle" x="333" y="-197.3" font-family="Times,serif" font-size="14.00" fill="white">110</text>
<polyline fill="none" stroke="white" points="306,-189.5 360,-189.5 "/>
<text text-anchor="middle" x="333" y="-174.3" font-family="Times,serif" font-size="14.00" fill="white">2</text>
</g>
<!-- N11->N110 -->
<g id="edge5" class="edge">
<title>N11->N110</title>
<path fill="none" stroke="white" d="M333,-249.37C333,-241.15 333,-231.66 333,-222.73"/>
<polygon fill="white" stroke="white" points="336.5,-222.61 333,-212.61 329.5,-222.61 336.5,-222.61"/>
</g>
<!-- N111 -->
<g id="node7" class="node">
<title>N111</title>
<polygon fill="none" stroke="white" points="468,-166.5 468,-212.5 522,-212.5 522,-166.5 468,-166.5"/>
<text text-anchor="middle" x="495" y="-197.3" font-family="Times,serif" font-size="14.00" fill="white">111</text>
<polyline fill="none" stroke="white" points="468,-189.5 522,-189.5 "/>
<text text-anchor="middle" x="495" y="-174.3" font-family="Times,serif" font-size="14.00" fill="white">3</text>
</g>
<!-- N11->N111 -->
<g id="edge6" class="edge">
<title>N11->N111</title>
<path fill="none" stroke="white" d="M360.12,-257.94C387.1,-244.45 428.68,-223.66 458.55,-208.73"/>
<polygon fill="white" stroke="white" points="460.42,-211.7 467.8,-204.1 457.29,-205.44 460.42,-211.7"/>
</g>
<!-- N1000 -->
<g id="node8" class="node">
<title>N1000</title>
<polygon fill="none" stroke="white" points="0,-83.5 0,-129.5 54,-129.5 54,-83.5 0,-83.5"/>
<text text-anchor="start" x="13" y="-114.3" font-family="Times,serif" font-size="14.00" fill="white">1000</text>
<polyline fill="none" stroke="white" points="0,-106.5 54,-106.5 "/>
<text text-anchor="start" x="23.5" y="-91.3" font-family="Times,serif" font-size="14.00" fill="red">4</text>
</g>
<!-- N100->N1000 -->
<g id="edge7" class="edge">
<title>N100->N1000</title>
<path fill="none" stroke="#abb2bf" stroke-dasharray="5,2" d="M79.33,-166.37C71.31,-157.35 61.92,-146.79 53.33,-137.12"/>
<polygon fill="#abb2bf" stroke="#abb2bf" points="55.91,-134.76 46.65,-129.61 50.68,-139.41 55.91,-134.76"/>
</g>
<!-- N1001 -->
<g id="node9" class="node">
<title>N1001</title>
<polygon fill="none" stroke="white" points="72,-83.5 72,-129.5 126,-129.5 126,-83.5 72,-83.5"/>
<text text-anchor="start" x="85" y="-114.3" font-family="Times,serif" font-size="14.00" fill="white">1001</text>
<polyline fill="none" stroke="white" points="72,-106.5 126,-106.5 "/>
<text text-anchor="start" x="95.5" y="-91.3" font-family="Times,serif" font-size="14.00" fill="red">5</text>
</g>
<!-- N100->N1001 -->
<g id="edge8" class="edge">
<title>N100->N1001</title>
<path fill="none" stroke="#abb2bf" stroke-dasharray="5,2" d="M99,-166.37C99,-158.15 99,-148.66 99,-139.73"/>
<polygon fill="#abb2bf" stroke="#abb2bf" points="102.5,-139.61 99,-129.61 95.5,-139.61 102.5,-139.61"/>
</g>
<!-- N1010 -->
<g id="node10" class="node">
<title>N1010</title>
<polygon fill="none" stroke="white" points="144,-83.5 144,-129.5 198,-129.5 198,-83.5 144,-83.5"/>
<text text-anchor="start" x="157" y="-114.3" font-family="Times,serif" font-size="14.00" fill="white">1010</text>
<polyline fill="none" stroke="white" points="144,-106.5 198,-106.5 "/>
<text text-anchor="start" x="167.5" y="-91.3" font-family="Times,serif" font-size="14.00" fill="red">2</text>
</g>
<!-- N101->N1010 -->
<g id="edge9" class="edge">
<title>N101->N1010</title>
<path fill="none" stroke="#abb2bf" stroke-dasharray="5,2" d="M210.24,-166.37C204.41,-157.62 197.61,-147.41 191.32,-137.99"/>
<polygon fill="#abb2bf" stroke="#abb2bf" points="194.2,-135.99 185.74,-129.61 188.37,-139.87 194.2,-135.99"/>
</g>
<!-- N1011 -->
<g id="node11" class="node">
<title>N1011</title>
<polygon fill="none" stroke="white" points="216,-83.5 216,-129.5 270,-129.5 270,-83.5 216,-83.5"/>
<text text-anchor="start" x="229" y="-114.3" font-family="Times,serif" font-size="14.00" fill="white">1011</text>
<polyline fill="none" stroke="white" points="216,-106.5 270,-106.5 "/>
<text text-anchor="start" x="239.5" y="-91.3" font-family="Times,serif" font-size="14.00" fill="red">3</text>
</g>
<!-- N101->N1011 -->
<g id="edge10" class="edge">
<title>N101->N1011</title>
<path fill="none" stroke="#abb2bf" stroke-dasharray="5,2" d="M229.92,-166.37C231.76,-158.06 233.9,-148.45 235.9,-139.43"/>
<polygon fill="#abb2bf" stroke="#abb2bf" points="239.33,-140.13 238.09,-129.61 232.5,-138.61 239.33,-140.13"/>
</g>
<!-- N1100 -->
<g id="node12" class="node">
<title>N1100</title>
<polygon fill="none" stroke="white" points="288,-83.5 288,-129.5 342,-129.5 342,-83.5 288,-83.5"/>
<text text-anchor="middle" x="315" y="-114.3" font-family="Times,serif" font-size="14.00" fill="white">1100</text>
<polyline fill="none" stroke="white" points="288,-106.5 342,-106.5 "/>
<text text-anchor="middle" x="315" y="-91.3" font-family="Times,serif" font-size="14.00" fill="white">8</text>
</g>
<!-- N110->N1100 -->
<g id="edge11" class="edge">
<title>N110->N1100</title>
<path fill="none" stroke="white" d="M328.08,-166.37C326.24,-158.06 324.1,-148.45 322.1,-139.43"/>
<polygon fill="white" stroke="white" points="325.5,-138.61 319.91,-129.61 318.67,-140.13 325.5,-138.61"/>
</g>
<!-- N1101 -->
<g id="node13" class="node">
<title>N1101</title>
<polygon fill="none" stroke="white" points="360,-83.5 360,-129.5 414,-129.5 414,-83.5 360,-83.5"/>
<text text-anchor="middle" x="387" y="-114.3" font-family="Times,serif" font-size="14.00" fill="white">1101</text>
<polyline fill="none" stroke="white" points="360,-106.5 414,-106.5 "/>
<text text-anchor="middle" x="387" y="-91.3" font-family="Times,serif" font-size="14.00" fill="white">9</text>
</g>
<!-- N110->N1101 -->
<g id="edge12" class="edge">
<title>N110->N1101</title>
<path fill="none" stroke="white" d="M347.76,-166.37C353.59,-157.62 360.39,-147.41 366.68,-137.99"/>
<polygon fill="white" stroke="white" points="369.63,-139.87 372.26,-129.61 363.8,-135.99 369.63,-139.87"/>
</g>
<!-- N1110 -->
<g id="node14" class="node">
<title>N1110</title>
<polygon fill="none" stroke="white" points="468,-83.5 468,-129.5 522,-129.5 522,-83.5 468,-83.5"/>
<text text-anchor="middle" x="495" y="-114.3" font-family="Times,serif" font-size="14.00" fill="white">1110</text>
<polyline fill="none" stroke="white" points="468,-106.5 522,-106.5 "/>
<text text-anchor="middle" x="495" y="-91.3" font-family="Times,serif" font-size="14.00" fill="white">6</text>
</g>
<!-- N111->N1110 -->
<g id="edge13" class="edge">
<title>N111->N1110</title>
<path fill="none" stroke="white" d="M495,-166.37C495,-158.15 495,-148.66 495,-139.73"/>
<polygon fill="white" stroke="white" points="498.5,-139.61 495,-129.61 491.5,-139.61 498.5,-139.61"/>
</g>
<!-- N1111 -->
<g id="node15" class="node">
<title>N1111</title>
<polygon fill="none" stroke="white" points="540,-83.5 540,-129.5 594,-129.5 594,-83.5 540,-83.5"/>
<text text-anchor="middle" x="567" y="-114.3" font-family="Times,serif" font-size="14.00" fill="white">1111</text>
<polyline fill="none" stroke="white" points="540,-106.5 594,-106.5 "/>
<text text-anchor="middle" x="567" y="-91.3" font-family="Times,serif" font-size="14.00" fill="white">7</text>
</g>
<!-- N111->N1111 -->
<g id="edge14" class="edge">
<title>N111->N1111</title>
<path fill="none" stroke="white" d="M514.67,-166.37C522.69,-157.35 532.08,-146.79 540.67,-137.12"/>
<polygon fill="white" stroke="white" points="543.32,-139.41 547.35,-129.61 538.09,-134.76 543.32,-139.41"/>
</g>
<!-- N11000 -->
<g id="node16" class="node">
<title>N11000</title>
<polygon fill="none" stroke="white" points="216,-0.5 216,-46.5 270,-46.5 270,-0.5 216,-0.5"/>
<text text-anchor="start" x="226" y="-31.3" font-family="Times,serif" font-size="14.00" fill="white">11000</text>
<polyline fill="none" stroke="white" points="216,-23.5 270,-23.5 "/>
<text text-anchor="start" x="239.5" y="-8.3" font-family="Times,serif" font-size="14.00" fill="red">8</text>
</g>
<!-- N1100->N11000 -->
<g id="edge15" class="edge">
<title>N1100->N11000</title>
<path fill="none" stroke="#abb2bf" stroke-dasharray="5,2" d="M295.33,-83.37C287.31,-74.35 277.92,-63.79 269.33,-54.12"/>
<polygon fill="#abb2bf" stroke="#abb2bf" points="271.91,-51.76 262.65,-46.61 266.68,-56.41 271.91,-51.76"/>
</g>
<!-- N11001 -->
<g id="node17" class="node">
<title>N11001</title>
<polygon fill="none" stroke="white" points="288,-0.5 288,-46.5 342,-46.5 342,-0.5 288,-0.5"/>
<text text-anchor="start" x="298" y="-31.3" font-family="Times,serif" font-size="14.00" fill="white">11001</text>
<polyline fill="none" stroke="white" points="288,-23.5 342,-23.5 "/>
<text text-anchor="start" x="311.5" y="-8.3" font-family="Times,serif" font-size="14.00" fill="red">9</text>
</g>
<!-- N1100->N11001 -->
<g id="edge16" class="edge">
<title>N1100->N11001</title>
<path fill="none" stroke="#abb2bf" stroke-dasharray="5,2" d="M315,-83.37C315,-75.15 315,-65.66 315,-56.73"/>
<polygon fill="#abb2bf" stroke="#abb2bf" points="318.5,-56.61 315,-46.61 311.5,-56.61 318.5,-56.61"/>
</g>
<!-- N11010 -->
<g id="node18" class="node">
<title>N11010</title>
<polygon fill="none" stroke="white" points="360,-0.5 360,-46.5 414,-46.5 414,-0.5 360,-0.5"/>
<text text-anchor="start" x="370" y="-31.3" font-family="Times,serif" font-size="14.00" fill="white">11010</text>
<polyline fill="none" stroke="white" points="360,-23.5 414,-23.5 "/>
<text text-anchor="start" x="383.5" y="-8.3" font-family="Times,serif" font-size="14.00" fill="red">6</text>
</g>
<!-- N1101->N11010 -->
<g id="edge17" class="edge">
<title>N1101->N11010</title>
<path fill="none" stroke="#abb2bf" stroke-dasharray="5,2" d="M387,-83.37C387,-75.15 387,-65.66 387,-56.73"/>
<polygon fill="#abb2bf" stroke="#abb2bf" points="390.5,-56.61 387,-46.61 383.5,-56.61 390.5,-56.61"/>
</g>
<!-- N11011 -->
<g id="node19" class="node">
<title>N11011</title>
<polygon fill="none" stroke="white" points="432,-0.5 432,-46.5 486,-46.5 486,-0.5 432,-0.5"/>
<text text-anchor="start" x="442" y="-31.3" font-family="Times,serif" font-size="14.00" fill="white">11011</text>
<polyline fill="none" stroke="white" points="432,-23.5 486,-23.5 "/>
<text text-anchor="start" x="455.5" y="-8.3" font-family="Times,serif" font-size="14.00" fill="red">7</text>
</g>
<!-- N1101->N11011 -->
<g id="edge18" class="edge">
<title>N1101->N11011</title>
<path fill="none" stroke="#abb2bf" stroke-dasharray="5,2" d="M406.67,-83.37C414.69,-74.35 424.08,-63.79 432.67,-54.12"/>
<polygon fill="#abb2bf" stroke="#abb2bf" points="435.32,-56.41 439.35,-46.61 430.09,-51.76 435.32,-56.41"/>
</g>
<!-- N11100 -->
<g id="node20" class="node">
<title>N11100</title>
<polygon fill="none" stroke="white" stroke-width="2" points="504,-0.5 504,-46.5 558,-46.5 558,-0.5 504,-0.5"/>
<text text-anchor="start" x="514" y="-31.3" font-family="Times,serif" font-size="14.00" fill="white">11100</text>
<polyline fill="none" stroke="white" stroke-width="2" points="504,-23.5 558,-23.5 "/>
<text text-anchor="start" x="527.5" y="-8.3" font-family="Times,serif" font-size="14.00" fill="green">0</text>
</g>
<!-- N1110->N11100 -->
<g id="edge19" class="edge">
<title>N1110->N11100</title>
<path fill="none" stroke="white" d="M504.84,-83.37C508.61,-74.88 512.98,-65.04 517.07,-55.85"/>
<polygon fill="white" stroke="white" points="520.31,-57.17 521.17,-46.61 513.91,-54.32 520.31,-57.17"/>
</g>
</g>
</svg>
